<mxfile host="app.diagrams.net" modified="2022-01-11T05:56:34.848Z" agent="5.0 (Macintosh; Intel Mac OS X 10_15_7) AppleWebKit/537.36 (KHTML, like Gecko) Chrome/96.0.4664.110 Safari/537.36" etag="1J48MiaDQ2YMTcGq2VEg" version="15.7.3" type="github">
  <diagram id="S4AvFaS1FlO98KIJ39zW" name="Page-1">
    <mxGraphModel dx="1186" dy="589" grid="1" gridSize="10" guides="1" tooltips="1" connect="1" arrows="1" fold="1" page="1" pageScale="1" pageWidth="827" pageHeight="1169" math="0" shadow="0">
      <root>
        <mxCell id="0" />
        <mxCell id="1" parent="0" />
        <mxCell id="aFzCnFoMK0MhnVJln1m9-6" style="edgeStyle=orthogonalEdgeStyle;rounded=0;orthogonalLoop=1;jettySize=auto;html=1;entryX=0.5;entryY=0;entryDx=0;entryDy=0;fontSize=18;" edge="1" parent="1" source="aFzCnFoMK0MhnVJln1m9-1" target="aFzCnFoMK0MhnVJln1m9-2">
          <mxGeometry relative="1" as="geometry" />
        </mxCell>
        <mxCell id="aFzCnFoMK0MhnVJln1m9-1" value="&lt;font style=&quot;font-size: 18px&quot;&gt;观点/ 事实&lt;/font&gt;" style="rounded=0;whiteSpace=wrap;html=1;" vertex="1" parent="1">
          <mxGeometry x="300" y="100" width="120" height="60" as="geometry" />
        </mxCell>
        <mxCell id="aFzCnFoMK0MhnVJln1m9-7" style="edgeStyle=orthogonalEdgeStyle;rounded=0;orthogonalLoop=1;jettySize=auto;html=1;entryX=0.5;entryY=0;entryDx=0;entryDy=0;fontSize=18;" edge="1" parent="1" source="aFzCnFoMK0MhnVJln1m9-2" target="aFzCnFoMK0MhnVJln1m9-3">
          <mxGeometry relative="1" as="geometry" />
        </mxCell>
        <mxCell id="aFzCnFoMK0MhnVJln1m9-2" value="原因【编】" style="rounded=0;whiteSpace=wrap;html=1;fontSize=18;" vertex="1" parent="1">
          <mxGeometry x="300" y="210" width="120" height="60" as="geometry" />
        </mxCell>
        <mxCell id="aFzCnFoMK0MhnVJln1m9-8" style="edgeStyle=orthogonalEdgeStyle;rounded=0;orthogonalLoop=1;jettySize=auto;html=1;entryX=0.5;entryY=0;entryDx=0;entryDy=0;fontSize=18;" edge="1" parent="1" source="aFzCnFoMK0MhnVJln1m9-3" target="aFzCnFoMK0MhnVJln1m9-4">
          <mxGeometry relative="1" as="geometry" />
        </mxCell>
        <mxCell id="aFzCnFoMK0MhnVJln1m9-3" value="具体（举例）" style="rounded=0;whiteSpace=wrap;html=1;fontSize=18;" vertex="1" parent="1">
          <mxGeometry x="300" y="310" width="120" height="60" as="geometry" />
        </mxCell>
        <mxCell id="aFzCnFoMK0MhnVJln1m9-9" style="edgeStyle=orthogonalEdgeStyle;rounded=0;orthogonalLoop=1;jettySize=auto;html=1;entryX=0.5;entryY=0;entryDx=0;entryDy=0;fontSize=18;" edge="1" parent="1" source="aFzCnFoMK0MhnVJln1m9-4" target="aFzCnFoMK0MhnVJln1m9-5">
          <mxGeometry relative="1" as="geometry" />
        </mxCell>
        <mxCell id="aFzCnFoMK0MhnVJln1m9-4" value="对比" style="rounded=0;whiteSpace=wrap;html=1;fontSize=18;" vertex="1" parent="1">
          <mxGeometry x="300" y="400" width="120" height="70" as="geometry" />
        </mxCell>
        <mxCell id="aFzCnFoMK0MhnVJln1m9-5" value="总结（yeah..）" style="rounded=0;whiteSpace=wrap;html=1;fontSize=18;" vertex="1" parent="1">
          <mxGeometry x="300" y="510" width="120" height="60" as="geometry" />
        </mxCell>
      </root>
    </mxGraphModel>
  </diagram>
</mxfile>
